<svg id="visual" viewBox="0 0 900 600" width="900" height="600" xmlns="http://www.w3.org/2000/svg" xmlns:xlink="http://www.w3.org/1999/xlink" version="1.1"><path d="M0 474L10.7 483.3C21.3 492.7 42.7 511.3 64.2 520.8C85.7 530.3 107.3 530.7 128.8 525.2C150.3 519.7 171.7 508.3 193 498C214.3 487.7 235.7 478.3 257 484.8C278.3 491.3 299.7 513.7 321.2 520.3C342.7 527 364.3 518 385.8 514.5C407.3 511 428.7 513 450 504C471.3 495 492.7 475 514.2 465C535.7 455 557.3 455 578.8 469C600.3 483 621.7 511 643 522.3C664.3 533.7 685.7 528.3 707 522.7C728.3 517 749.7 511 771.2 499.2C792.7 487.3 814.3 469.7 835.8 460.8C857.3 452 878.7 452 889.3 452L900 452L900 601L889.3 601C878.7 601 857.3 601 835.8 601C814.3 601 792.7 601 771.2 601C749.7 601 728.3 601 707 601C685.7 601 664.3 601 643 601C621.7 601 600.3 601 578.8 601C557.3 601 535.7 601 514.2 601C492.7 601 471.3 601 450 601C428.7 601 407.3 601 385.8 601C364.3 601 342.7 601 321.2 601C299.7 601 278.3 601 257 601C235.7 601 214.3 601 193 601C171.7 601 150.3 601 128.8 601C107.3 601 85.7 601 64.2 601C42.7 601 21.3 601 10.7 601L0 601Z" fill="#94c9fc"></path><path d="M0 503L10.7 499.5C21.3 496 42.7 489 64.2 488C85.7 487 107.3 492 128.8 503.2C150.3 514.3 171.7 531.7 193 534.5C214.3 537.3 235.7 525.7 257 527.2C278.3 528.7 299.7 543.3 321.2 536.7C342.7 530 364.3 502 385.8 493C407.3 484 428.7 494 450 502.7C471.3 511.3 492.7 518.7 514.2 515.5C535.7 512.3 557.3 498.7 578.8 504C600.3 509.3 621.7 533.7 643 534C664.3 534.3 685.7 510.7 707 504C728.3 497.3 749.7 507.7 771.2 512.7C792.7 517.7 814.3 517.3 835.8 512.5C857.3 507.7 878.7 498.3 889.3 493.7L900 489L900 601L889.3 601C878.7 601 857.3 601 835.8 601C814.3 601 792.7 601 771.2 601C749.7 601 728.3 601 707 601C685.7 601 664.3 601 643 601C621.7 601 600.3 601 578.8 601C557.3 601 535.7 601 514.2 601C492.7 601 471.3 601 450 601C428.7 601 407.3 601 385.8 601C364.3 601 342.7 601 321.2 601C299.7 601 278.3 601 257 601C235.7 601 214.3 601 193 601C171.7 601 150.3 601 128.8 601C107.3 601 85.7 601 64.2 601C42.7 601 21.3 601 10.7 601L0 601Z" fill="#71b7fe"></path><path d="M0 566L10.7 557.7C21.3 549.3 42.7 532.7 64.2 524.3C85.7 516 107.3 516 128.8 515.2C150.3 514.3 171.7 512.7 193 511.8C214.3 511 235.7 511 257 518.3C278.3 525.7 299.7 540.3 321.2 548C342.7 555.7 364.3 556.3 385.8 559.2C407.3 562 428.7 567 450 568.2C471.3 569.3 492.7 566.7 514.2 561.3C535.7 556 557.3 548 578.8 546.7C600.3 545.3 621.7 550.7 643 545.5C664.3 540.3 685.7 524.7 707 521.2C728.3 517.7 749.7 526.3 771.2 529.7C792.7 533 814.3 531 835.8 529.7C857.3 528.3 878.7 527.7 889.3 527.3L900 527L900 601L889.3 601C878.7 601 857.3 601 835.8 601C814.3 601 792.7 601 771.2 601C749.7 601 728.3 601 707 601C685.7 601 664.3 601 643 601C621.7 601 600.3 601 578.8 601C557.3 601 535.7 601 514.2 601C492.7 601 471.3 601 450 601C428.7 601 407.3 601 385.8 601C364.3 601 342.7 601 321.2 601C299.7 601 278.3 601 257 601C235.7 601 214.3 601 193 601C171.7 601 150.3 601 128.8 601C107.3 601 85.7 601 64.2 601C42.7 601 21.3 601 10.7 601L0 601Z" fill="#4ca3ff"></path><path d="M0 551L10.7 553.7C21.3 556.3 42.7 561.7 64.2 562.3C85.7 563 107.3 559 128.8 555.5C150.3 552 171.7 549 193 551.7C214.3 554.3 235.7 562.7 257 568.5C278.3 574.3 299.7 577.7 321.2 573.7C342.7 569.7 364.3 558.3 385.8 554.7C407.3 551 428.7 555 450 554.8C471.3 554.7 492.7 550.3 514.2 548.8C535.7 547.3 557.3 548.7 578.8 555.3C600.3 562 621.7 574 643 575.3C664.3 576.7 685.7 567.3 707 565.2C728.3 563 749.7 568 771.2 565.2C792.7 562.3 814.3 551.7 835.8 547.8C857.3 544 878.7 547 889.3 548.5L900 550L900 601L889.3 601C878.7 601 857.3 601 835.8 601C814.3 601 792.7 601 771.2 601C749.7 601 728.3 601 707 601C685.7 601 664.3 601 643 601C621.7 601 600.3 601 578.8 601C557.3 601 535.7 601 514.2 601C492.7 601 471.3 601 450 601C428.7 601 407.3 601 385.8 601C364.3 601 342.7 601 321.2 601C299.7 601 278.3 601 257 601C235.7 601 214.3 601 193 601C171.7 601 150.3 601 128.8 601C107.3 601 85.7 601 64.2 601C42.7 601 21.3 601 10.7 601L0 601Z" fill="#1890ff"></path></svg>